<svg xmlns="http://www.w3.org/2000/svg" viewBox="0 0 346 322" role="img" aria-hidden="true">
  <path fill="#3773A4" d="M 192.393324 96.518182 L 192.393324 88.033333 L 160.514536 88.033333 L 133.847869 88.033333 L 133.847869 58.942424 C 133.847869 23.790909 245.363021 23.790909 250.938778 58.942424 L 250.938778 121.972727 Q 248.999384 149.851515 219.908475 151.063636 L 158.696354 151.063636 Q 126.575142 152.275758 125.363021 183.790909 L 125.363021 214.7 L 103.544839 214.7 C 61.120597 212.881818 61.120597 98.942424 103.544839 96.518182 z"/>
  <path fill="#FFD343" d="M 191.666051 212.881818 L 191.666051 221.366667 L 223.544839 221.366667 L 250.211506 221.366667 L 250.211506 250.457576 C 250.211506 285.609091 138.696354 285.609091 133.120597 250.457576 L 133.120597 187.427273 Q 135.059991 159.548485 164.1509 158.336364 L 225.363021 158.336364 Q 257.484233 157.124242 258.696354 125.609091 L 258.696354 94.7 L 280.514536 94.7 C 322.938778 96.518182 322.938778 210.457576 280.514536 212.881818 z"/>
  <path fill="#ffffff" d="M 159.787263 73.245455 C 162.616096 73.245455 165.329449 72.121547 167.329736 70.12126 C 169.330023 68.120973 170.45393 65.407621 170.45393 62.578788 C 170.45393 59.749955 169.330023 57.036603 167.329736 55.036316 C 165.329449 53.036029 162.616096 51.912121 159.787263 51.912121 C 156.95843 51.912121 154.245078 53.036029 152.244791 55.036316 C 150.244504 57.036603 149.120597 59.749955 149.120597 62.578788 C 149.120597 65.407621 150.244504 68.120973 152.244791 70.12126 C 154.245078 72.121547 156.95843 73.245455 159.787263 73.245455 z"/>
  <path fill="#ffffff" d="M 224.272112 236.154545 C 221.443279 236.154545 218.729926 237.278453 216.729639 239.27874 C 214.729352 241.279027 213.605445 243.992379 213.605445 246.821212 C 213.605445 249.650045 214.729352 252.363397 216.729639 254.363684 C 218.729926 256.363971 221.443279 257.487879 224.272112 257.487879 C 227.100945 257.487879 229.814297 256.363971 231.814584 254.363684 C 233.814871 252.363397 234.938778 249.650045 234.938778 246.821212 C 234.938778 243.992379 233.814871 241.279027 231.814584 239.27874 C 229.814297 237.278453 227.100945 236.154545 224.272112 236.154545 z"/>
</svg>
